<svg width="27" height="27" viewBox="0 0 27 27" fill="none" xmlns="http://www.w3.org/2000/svg">
<g clip-path="url(#clip0)">
<path d="M25.2 11.025H24.75C24.7471 10.4362 24.3628 9.9172 23.8005 9.74252C23.2804 4.44342 18.8246 0.403564 13.5 0.403564C8.17543 0.403564 3.71963 4.44342 3.1995 9.74252C2.63717 9.9172 2.25294 10.4362 2.25 11.025H1.8C0.805887 11.025 0 11.8309 0 12.825V16.425C0 17.4191 0.805887 18.225 1.8 18.225H2.25C2.25 18.9706 2.85442 19.575 3.6 19.575H4.05V21.375C4.05 23.6118 5.86325 25.425 8.1 25.425H9.513C9.71765 26.2177 10.4314 26.7724 11.25 26.775H15.75C16.7441 26.775 17.55 25.9691 17.55 24.975C17.55 23.9809 16.7441 23.175 15.75 23.175H11.25C10.4314 23.1777 9.71765 23.7324 9.513 24.525H8.1C6.3603 24.525 4.95 23.1147 4.95 21.375V19.575H5.4C6.14558 19.575 6.75 18.9706 6.75 18.225V11.025C6.74943 10.4745 6.41468 9.97954 5.904 9.77402C6.36349 5.92735 9.62598 3.03138 13.5 3.03138C17.374 3.03138 20.6365 5.92735 21.096 9.77402C20.5853 9.97954 20.2506 10.4745 20.25 11.025V18.225C20.25 18.9706 20.8544 19.575 21.6 19.575H23.4C24.1456 19.575 24.75 18.9706 24.75 18.225H25.2C26.1941 18.225 27 17.4191 27 16.425V12.825C27 11.8309 26.1941 11.025 25.2 11.025ZM11.25 24.075H15.75C16.2471 24.075 16.65 24.478 16.65 24.975C16.65 25.4721 16.2471 25.875 15.75 25.875H11.25C10.7529 25.875 10.35 25.4721 10.35 24.975C10.35 24.478 10.7529 24.075 11.25 24.075ZM1.8 17.325C1.30294 17.325 0.9 16.9221 0.9 16.425V12.825C0.9 12.328 1.30294 11.925 1.8 11.925H2.25V17.325H1.8ZM5.85 18.225C5.85 18.4736 5.64853 18.675 5.4 18.675H3.6C3.35147 18.675 3.15 18.4736 3.15 18.225V11.025C3.15 10.7765 3.35147 10.575 3.6 10.575H5.4C5.64853 10.575 5.85 10.7765 5.85 11.025V18.225ZM13.5 2.02503C9.13057 2.03065 5.46844 5.32987 5.0085 9.67502H4.1085C4.64319 4.892 8.68718 1.2749 13.5 1.2749C18.3128 1.2749 22.3568 4.892 22.8915 9.67502H21.9915C21.5316 5.32987 17.8694 2.03065 13.5 2.02503ZM23.85 18.225C23.85 18.4736 23.6485 18.675 23.4 18.675H21.6C21.3515 18.675 21.15 18.4736 21.15 18.225V11.025C21.15 10.7765 21.3515 10.575 21.6 10.575H23.4C23.6485 10.575 23.85 10.7765 23.85 11.025V18.225ZM26.1 16.425C26.1 16.9221 25.6971 17.325 25.2 17.325H24.75V11.925H25.2C25.6971 11.925 26.1 12.328 26.1 12.825V16.425Z" fill="black"/>
</g>
<defs>
<clipPath id="clip0">
<rect width="27" height="27" fill="white"/>
</clipPath>
</defs>
</svg>
