<svg width="31" height="31" viewBox="0 0 31 31" fill="none" xmlns="http://www.w3.org/2000/svg">
<path d="M27.9727 3.99609H18.2246C17.8902 3.99609 17.6191 4.26716 17.6191 4.60156C17.6191 4.93596 17.8902 5.20703 18.2246 5.20703H27.9727C28.9742 5.20703 29.7891 6.02187 29.7891 7.02344V23.9766C29.7891 24.9781 28.9742 25.793 27.9727 25.793H3.02734C2.02578 25.793 1.21094 24.9781 1.21094 23.9766V7.02344C1.21094 6.02187 2.02578 5.20703 3.02734 5.20703H12.7754C13.1098 5.20703 13.3809 4.93596 13.3809 4.60156C13.3809 4.26716 13.1098 3.99609 12.7754 3.99609H3.02734C1.35807 3.99609 0 5.35416 0 7.02344V23.9766C0 25.6458 1.35807 27.0039 3.02734 27.0039H27.9727C29.6419 27.0039 31 25.6458 31 23.9766V7.02344C31 5.35416 29.6419 3.99609 27.9727 3.99609Z" fill="black"/>
<path d="M2.66406 7.26562V23.7344C2.66406 24.0688 2.93513 24.3398 3.26953 24.3398H27.7305C28.0649 24.3398 28.3359 24.0688 28.3359 23.7344V7.26562C28.3359 6.93122 28.0649 6.66016 27.7305 6.66016H3.26953C2.93513 6.66016 2.66406 6.93122 2.66406 7.26562ZM12.0488 23.1289V7.87109H18.9512V23.1289H12.0488ZM27.125 23.1289H20.1621V7.87109H27.125V23.1289ZM3.875 7.87109H10.8379V23.1289H3.875V7.87109Z" fill="black"/>
<path d="M9.49823 12.1974C9.3864 12.0261 9.19574 11.9229 8.99121 11.9229H5.72168C5.38728 11.9229 5.11621 12.1939 5.11621 12.5283C5.11621 12.8627 5.38728 13.1338 5.72168 13.1338H8.06369L5.82437 18.2279C5.68983 18.534 5.82891 18.8912 6.13497 19.0258C6.21429 19.0607 6.29694 19.0772 6.37831 19.0772C6.61117 19.0772 6.8332 18.9421 6.93292 18.7152L9.54546 12.772C9.6278 12.5848 9.61 12.3687 9.49823 12.1974Z" fill="black"/>
<path d="M22.0088 13.1338H24.3508L22.1115 18.2279C21.9769 18.534 22.116 18.8912 22.4221 19.0258C22.5014 19.0607 22.584 19.0772 22.6654 19.0772C22.8983 19.0772 23.1203 18.9421 23.22 18.7152L25.8326 12.772C25.9148 12.5848 25.8971 12.3687 25.7853 12.1974C25.6735 12.0261 25.4828 11.9229 25.2783 11.9229H22.0088C21.6744 11.9229 21.4033 12.1939 21.4033 12.5283C21.4033 12.8627 21.6744 13.1338 22.0088 13.1338Z" fill="black"/>
<path d="M17.6418 12.1974C17.53 12.0261 17.3393 11.9229 17.1348 11.9229H13.8652C13.5308 11.9229 13.2598 12.1939 13.2598 12.5283C13.2598 12.8627 13.5308 13.1338 13.8652 13.1338H16.2072L13.9679 18.2279C13.8334 18.534 13.9725 18.8912 14.2785 19.0258C14.3578 19.0607 14.4405 19.0772 14.5219 19.0772C14.7547 19.0772 14.9768 18.9421 15.0765 18.7152L17.689 12.772C17.7714 12.5848 17.7536 12.3687 17.6418 12.1974Z" fill="black"/>
<path d="M15.5 5.20703C15.6592 5.20703 15.8154 5.14225 15.9281 5.02963C16.0407 4.91701 16.1055 4.7608 16.1055 4.60156C16.1055 4.44232 16.0407 4.28611 15.9281 4.1735C15.8154 4.06088 15.6592 3.99609 15.5 3.99609C15.3408 3.99609 15.1846 4.06088 15.0719 4.1735C14.9593 4.28611 14.8945 4.44232 14.8945 4.60156C14.8945 4.7608 14.9593 4.91701 15.0719 5.02963C15.1846 5.14225 15.3408 5.20703 15.5 5.20703Z" fill="black"/>
</svg>
