<svg width="26" height="26" viewBox="0 0 26 26" fill="none" xmlns="http://www.w3.org/2000/svg">
<g clip-path="url(#clip0)">
<path d="M24.7575 5.55764L22.6537 5.13866L22.7973 3.61872C22.8582 2.91836 22.3458 2.29872 21.6465 2.22709L18.9612 1.97135L18.9429 1.62525C18.9053 0.920488 18.3038 0.379466 17.599 0.416463L1.42488 1.26892C1.08613 1.28623 0.768135 1.43741 0.540874 1.68922C0.313613 1.94102 0.19571 2.2728 0.213111 2.61154L1.37928 24.7448C1.41439 25.4236 1.97443 25.9563 2.65413 25.9574H2.7236L16.8646 25.2132L20.7007 25.9766C21.0334 26.0437 21.3791 25.9755 21.6614 25.7871C21.9437 25.5988 22.1394 25.3058 22.2053 24.9728L25.7613 7.06181C25.8288 6.72912 25.7609 6.38323 25.5724 6.10085C25.384 5.81848 25.0907 5.62295 24.7575 5.55764ZM19.1475 24.1118C19.0722 24.1963 18.966 24.2468 18.853 24.2521L2.67842 25.1045C2.44339 25.1169 2.24284 24.9363 2.23046 24.7013L1.06557 2.56636C1.05373 2.33149 1.23436 2.13142 1.46921 2.11925L17.6433 1.26679C17.8776 1.25659 18.0769 1.43595 18.0913 1.67L19.2558 23.8032C19.2626 23.9165 19.2236 24.0277 19.1475 24.1118ZM19.0064 2.83233L21.5638 3.07528C21.677 3.08522 21.7816 3.13997 21.8543 3.22737C21.927 3.31477 21.9617 3.42758 21.9508 3.54072L20.0839 23.2752L19.0064 2.83233ZM24.9255 6.89472L21.3707 24.8066C21.3236 25.0361 21.1001 25.1846 20.8703 25.1391L20.1832 25.0027C20.2649 24.9616 20.3421 24.912 20.4134 24.8548C20.6757 24.6397 20.8405 24.3282 20.8708 23.9904L22.5731 5.99154L24.5934 6.39348C24.7044 6.41494 24.8022 6.48004 24.8647 6.57419C24.9273 6.66834 24.9495 6.78365 24.9263 6.8943L24.9255 6.89472Z" fill="black"/>
<path d="M11.6787 9.65413C11.0436 9.15587 10.4427 8.68531 10.311 8.34774C10.2437 8.17724 10.075 8.06881 9.89197 8.07848C9.70894 8.08814 9.55259 8.21373 9.50367 8.39036C9.40692 8.7403 8.86006 9.27095 8.28082 9.83272C7.0797 10.9985 5.43488 12.5947 5.54613 14.7092C5.51821 15.4868 5.88958 16.2247 6.53072 16.6656C7.30731 17.146 8.33751 16.9955 8.99433 16.8169C8.91136 17.4716 8.58029 18.0695 8.06941 18.4873C7.89271 18.6134 7.83903 18.8522 7.94476 19.0418C8.05048 19.2314 8.28183 19.3113 8.482 19.2272C9.11583 18.9774 9.77809 18.8067 10.4537 18.7192C11.1351 18.7351 11.8118 18.8353 12.4685 19.0175C12.6743 19.0742 12.8903 18.9699 12.9739 18.7735C13.0575 18.577 12.9828 18.3491 12.7993 18.2401C12.2472 17.8782 11.8552 17.3181 11.7043 16.6754C12.3756 16.7832 13.416 16.8254 14.1385 16.2671C14.7299 15.7605 15.0215 14.987 14.9117 14.2161C14.7992 12.1024 12.9958 10.6873 11.6787 9.65413ZM13.6164 15.5924C12.977 16.0872 11.7256 15.8481 11.2968 15.7134C11.1635 15.6713 11.0179 15.6972 10.9073 15.7829C10.7968 15.8685 10.7352 16.003 10.7427 16.1426C10.7954 16.7692 10.9891 17.3758 11.3092 17.917C11.0103 17.8739 10.7082 17.8574 10.4064 17.8676C10.1054 17.8891 9.80689 17.9372 9.51433 18.0112C9.77584 17.4396 9.90479 16.8163 9.89154 16.1878C9.88441 16.048 9.80903 15.9205 9.6899 15.8469C9.57077 15.7733 9.42308 15.7629 9.29482 15.8191C8.88265 15.9969 7.66236 16.3664 6.97528 15.9414C6.5806 15.6388 6.36312 15.1591 6.3956 14.6628C6.30482 12.9357 7.72843 11.5513 8.87285 10.4431C9.25963 10.0882 9.6211 9.7066 9.95462 9.30122C10.3289 9.66967 10.7286 10.0115 11.1506 10.3242C12.405 11.3079 13.9659 12.5329 14.0571 14.2604C14.1413 14.75 13.9762 15.2494 13.6168 15.5924H13.6164Z" fill="black"/>
<path d="M15.9793 2.50118C15.9121 2.33068 15.7434 2.22226 15.5603 2.23192C15.3773 2.24158 15.2209 2.36717 15.172 2.54381L14.0967 6.44125C14.0613 6.56952 14.0878 6.70697 14.1684 6.81284C14.249 6.91871 14.3745 6.98086 14.5075 6.98085H14.5293L14.9555 6.95869C15.1603 6.94816 15.3286 6.79328 15.356 6.59005C15.3835 6.38682 15.2623 6.19285 15.0676 6.12839L15.1955 5.66551L16.2845 5.60839L16.4597 6.05466C16.2726 6.13907 16.1723 6.34481 16.2209 6.54419C16.2695 6.74357 16.4534 6.87998 16.6583 6.86875L17.0845 6.84702C17.2215 6.83996 17.3467 6.76742 17.4209 6.65212C17.4952 6.53681 17.5094 6.39282 17.4592 6.26521L15.9793 2.50118ZM15.4342 4.79856L15.6537 4.00321L15.9554 4.77043L15.4342 4.79856Z" fill="black"/>
<path d="M16.7251 8.14486C16.6096 8.16294 16.4922 8.1281 16.4052 8.05C16.3183 7.9719 16.2711 7.85882 16.2767 7.74208C16.2706 7.50668 16.0748 7.32081 15.8394 7.32693C15.604 7.33305 15.4181 7.52884 15.4242 7.76424V7.78726C15.4228 7.86902 15.4062 7.94981 15.3752 8.02552C15.3326 8.12227 15.258 8.22244 15.0215 8.23437C14.7861 8.24038 14.6001 8.43607 14.6061 8.67147C14.6121 8.90687 14.8078 9.09284 15.0432 9.08683H15.0658C15.2101 9.0802 15.3526 9.05145 15.4882 9.00159L15.5138 9.49218C15.5258 9.71871 15.7131 9.89614 15.94 9.89582H15.9626C16.0755 9.88987 16.1815 9.83928 16.2571 9.75518C16.3327 9.67108 16.3718 9.56037 16.3658 9.44742L16.3402 8.95598C16.4804 8.99112 16.6251 9.00548 16.7694 8.9986C17.0048 8.98683 17.1861 8.78646 17.1744 8.55106C17.1626 8.31566 16.9622 8.13437 16.7268 8.14614L16.7251 8.14486Z" fill="black"/>
<path d="M5.79239 19.3905L5.36616 19.4131C5.16135 19.4236 4.99307 19.5785 4.96563 19.7817C4.93819 19.985 5.05937 20.1789 5.25406 20.2434L5.12619 20.7063L4.03717 20.7634L3.86157 20.3167C4.04863 20.2323 4.14898 20.0265 4.10034 19.8272C4.05169 19.6278 3.86787 19.4914 3.66294 19.5026L3.23671 19.5252C3.09994 19.5324 2.97497 19.6049 2.90084 19.7201C2.82671 19.8353 2.81244 19.9791 2.86248 20.1066L4.34278 23.8689C4.40678 24.0321 4.56424 24.1395 4.7396 24.1395H4.76219C4.94548 24.1297 5.10192 24.0037 5.15048 23.8267L6.22586 19.9288C6.26238 19.7967 6.23312 19.655 6.14722 19.5482C6.06133 19.4414 5.92928 19.3824 5.79239 19.3896V19.3905ZM4.66884 22.3681L4.36707 21.6009L4.88835 21.5736L4.66884 22.3681Z" fill="black"/>
<path d="M3.59681 18.226C3.71245 18.2074 3.83029 18.2421 3.91738 18.3204C4.00447 18.3987 4.05146 18.5122 4.04521 18.6292C4.05723 18.8557 4.24458 19.0332 4.47144 19.0328H4.49403C4.72073 19.021 4.8984 18.8336 4.89809 18.6066C4.89809 18.5994 4.89809 18.5917 4.89809 18.5844C4.89954 18.5025 4.91631 18.4215 4.94753 18.3458C4.99016 18.249 5.06432 18.1488 5.30173 18.1365C5.53713 18.124 5.71784 17.9231 5.70537 17.6877C5.69289 17.4523 5.49195 17.2715 5.25655 17.284C5.11214 17.2916 4.96972 17.3211 4.83416 17.3714L4.80858 16.8808C4.79611 16.6454 4.59516 16.4647 4.35976 16.4772C4.12436 16.4896 3.94365 16.6906 3.95612 16.926L3.98212 17.4187C3.84197 17.3831 3.69741 17.3679 3.55291 17.3735C3.40063 17.3811 3.26399 17.4694 3.19444 17.6051C3.1249 17.7408 3.13302 17.9033 3.21575 18.0313C3.29849 18.1594 3.44326 18.2336 3.59553 18.226H3.59681Z" fill="black"/>
</g>
<defs>
<clipPath id="clip0">
<rect width="26" height="26" fill="white"/>
</clipPath>
</defs>
</svg>
