<svg width="27" height="27" viewBox="0 0 27 27" fill="none" xmlns="http://www.w3.org/2000/svg">
<path d="M23.4515 12.636V24.6394H3.57948V12.636H1.72803V25.5651C1.72803 26.0764 2.14241 26.4908 2.65373 26.4908H24.3772C24.8885 26.4908 25.3029 26.0764 25.3029 25.5651V12.636H23.4515Z" fill="black"/>
<path d="M26.0743 5.69287H0.925699C0.414387 5.69287 0 6.10726 0 6.61857V12.6666C0 13.1779 0.414387 13.5923 0.925699 13.5923H26.0742C26.5856 13.5923 26.9999 13.1781 26.9999 12.6666V6.61857C27 6.10726 26.5856 5.69287 26.0743 5.69287ZM25.1485 11.7412H1.85145V7.54464H25.1486V11.7412H25.1485Z" fill="black"/>
<path d="M14.4108 6.38435C14.3478 6.1443 12.8208 0.509155 8.36218 0.509155C6.42251 0.509155 4.84448 2.08718 4.84448 4.02685C4.84448 5.96653 6.40864 7.54455 8.33133 7.54455H13.5153C13.802 7.54455 14.0729 7.41156 14.2482 7.18443C14.4234 6.9573 14.4833 6.66173 14.4108 6.38435ZM8.33138 5.69316C7.41433 5.69316 6.69593 4.9612 6.69593 4.02685C6.69593 3.12367 7.45905 2.36055 8.36223 2.36055C10.3936 2.36055 11.6099 4.36167 12.1947 5.6931H8.33138V5.69316Z" fill="black"/>
<path d="M18.6685 0.509155C14.21 0.509155 12.6829 6.1443 12.6199 6.38435C12.5471 6.66173 12.6072 6.95736 12.7825 7.18448C12.9578 7.41161 13.2284 7.54461 13.5154 7.54461H18.6994C20.6221 7.54461 22.1862 5.96658 22.1862 4.02691C22.1863 2.08718 20.6082 0.509155 18.6685 0.509155ZM18.6994 5.69316H14.8324C15.4129 4.36167 16.6255 2.36061 18.6689 2.36061C19.5721 2.36061 20.3352 3.12373 20.3352 4.02691C20.3351 4.9612 19.6168 5.69316 18.6994 5.69316Z" fill="black"/>
<path d="M14.441 6.6189H12.5896V25.5652H14.441V6.6189Z" fill="black"/>
</svg>
